<?xml version="1.0" encoding="utf-8"?>
<!-- Svg Vector Icons : http://www.onlinewebfonts.com/icon -->
<!DOCTYPE svg PUBLIC "-//W3C//DTD SVG 1.1//EN" "http://www.w3.org/Graphics/SVG/1.1/DTD/svg11.dtd">
<svg version="1.1" xmlns="http://www.w3.org/2000/svg" xmlns:xlink="http://www.w3.org/1999/xlink" x="0px" y="0px" viewBox="0 0 256 256" enable-background="new 0 0 256 256" xml:space="preserve">
<metadata> Svg Vector Icons : http://www.onlinewebfonts.com/icon </metadata>
<g><g><g><path fill="#000000" d="M98.8,10.1c0,0.2,1,2.7,2.1,5.6c5.3,13.2,10.8,31.3,14.2,46.8c5.2,23.5,7.9,46.1,9.3,77.8c0.3,6.9,0.3,7.1,1.3,6.8c2-0.4,16.1-1.6,25.4-2.1c16.2-0.9,42.2,0,56.3,1.9c1.8,0.2,3.2,0.4,3.3,0.3c0.2-0.2-1.2-10.3-2.4-16.9c-8-45.5-28.4-80.6-58.6-100.8c-9.6-6.5-18.2-10.6-29.5-14.4C112.3,12.3,98.8,9.3,98.8,10.1z"/><path fill="#000000" d="M86.6,28.8C82.2,45.9,74.2,66.9,56.1,108c-13.4,30.5-19.4,45.1-23.5,56.7l-1.7,4.7l5.4-1.8c10.2-3.5,24.8-7.7,36.1-10.6c11.2-2.8,29.5-6.6,34.4-7.2c1.4-0.2,2.6-0.5,2.7-0.7c0.4-0.6-0.6-21.6-1.6-33.1c-2.2-25.9-6.2-48.7-12.5-70.1c-1.4-4.8-6.7-20.7-7.3-21.7C88.1,23.8,87.3,25.9,86.6,28.8z"/><path fill="#000000" d="M228.5,159.6c-99.3,5.9-178.9,18.3-213.1,33.1c-5.4,2.4-5.5,2.4-5.4,3.8c0.4,3.5,8.1,21.7,10.2,24c1.8,1.9,4.5,3,7.6,3c2.9,0,4.3-0.5,13.3-4.2c7.9-3.2,13.1-4.6,18.9-4.9c4.2-0.2,5.2-0.1,7.4,0.7c3.3,1.2,6.1,3.7,7.8,6.8l1.4,2.4l1.9-0.9c1.1-0.5,3.8-1.7,6-2.7c9.6-4.5,16.3-6.2,23.8-6.3c4.6,0,5.6,0.1,7.5,1.1c2.7,1.3,5.6,4.1,6.9,6.6c0.6,1.1,1.1,2,1.1,2.1c0,0,1.9-0.7,4.2-1.8c12.1-5.7,19-7.8,26.5-8.1c4.2-0.2,5.2-0.1,7.4,0.7c3.3,1.2,6.1,3.7,7.8,6.8l1.4,2.4l2.6-1.2c12.7-5.7,17.8-7.6,24.1-8.4c2.1-0.3,5.5-0.5,7.5-0.3l3.6,0.2l3.8-7c10.2-18.7,19.3-32.5,31.3-47l1.6-1.8l-3.4,0C240.4,158.9,234.2,159.2,228.5,159.6z"/><path fill="#000000" d="M56.1,224.2c-4.5,0.8-8,2.1-16.9,6c-4.3,1.9-8.6,3.7-9.7,4.1c-4,1.4-6.5,0.5-8.3-3c-2.1-4.2-8.3-4.2-10-0.2c-0.9,2.1-0.8,2.8,0.5,5.6c2.4,5,7.5,8.6,13,9.2c3.8,0.4,8.3-0.9,17.1-4.9c7-3.2,14.3-6,15.6-6c0.4,0,1.1,0.9,1.7,2.1c1.3,2.7,5.3,6.4,8.1,7.7c1.7,0.8,3.1,1,6.1,1c4.5,0,6.9-0.8,16.9-5.3c5.8-2.7,13.3-5.4,14.6-5.4c0.4,0,1.1,0.9,1.6,1.9c1.2,2.7,4.8,6.2,7.7,7.5c5.7,2.6,10.5,1.9,22.3-3.5c6.8-3.1,14.3-6,15.5-6c0.3,0,1.1,1,1.8,2.2c1.6,2.9,5.3,6.3,8.1,7.6c1.7,0.7,3,1,5.9,1c4.4,0,7.6-1,16.9-5.3c5.7-2.6,13.5-5.5,14.7-5.5c0.3,0,0.9,0.8,1.4,1.8c3,5.9,9.6,9.7,15.7,9.1c3.4-0.4,7.5-1.8,16.2-5.7c3.9-1.8,8.1-3.6,9.3-4c3.4-1.2,4.9-4.7,3.4-7.6c-1.9-3.7-5.2-3.7-13.2-0.2c-2.9,1.3-7.2,3.2-9.6,4.2c-5.2,2.3-7.7,2.7-9.6,1.7c-1.5-0.7-3.4-4-3.4-5.8c0-1.6-1.3-3.6-2.8-4.4c-3.7-1.9-12.7,0.1-25.4,5.9c-11.5,5.3-14,5.9-16.3,4.1c-1.4-1.1-2.7-3.6-2.7-5.3c0-1.8-1.3-3.8-3.2-4.7c-1.2-0.6-2.3-0.7-4.8-0.5c-6.4,0.6-10.4,1.9-25.5,8.6c-3.1,1.4-6.4,2.5-7.7,2.7c-2,0.2-2.3,0.1-3.8-1.4c-0.9-0.9-1.7-2.2-1.9-3c-1.3-6.8-3.6-8-12-6.4c-5.2,1-8.6,2.2-16.8,5.9c-8.1,3.6-11.6,4.9-13.3,4.9c-2.7,0-5.6-3.2-5.6-6.2c0-1.8-1.3-3.8-3-4.6C63,223.3,60.5,223.3,56.1,224.2z"/></g></g></g>
</svg>